Patient4_TMGait_0pt7_02_left_19_EMG.mot
version=1
nRows=13
nColumns=33
inDegrees=no
endheader
time	1LAddLong	2LGlutMax	3LGlutMed	4LIliopsoas	5LSemiMemb	6LBicFemLong	7LRecFem	8LVastMed	9LVastLat	10LGasMed	11LTibAnt	12lTibPost	13LPeroneusLong	14LSol	15LExtDigLong	16LFlexDigLong	17RAddLong	18RGlutMax	19RGlutMed	20RIliopsoas	21RSemiMemb	22RBicFemLong	23RRecFem	24RVastMed	25RVastLat	26RGasMed	27RTibAnt	28RTibPost	29RPeroneusLong	30RSol	31RExtDigLong	32RFlexDigLong
21.5	0.003052	1.256	-0.027161	0.021362	-0.016022	-0.016174	0.031586	0.004272	0.30075	-0.034027	0.042877	-0.005646	0.00885	-0.085297	-0.17517	-0.02121	0.02655	-0.1181	0.56915	0.2652	-0.068665	-0.12192	-0.41168	-0.18143	0.23285	0.007019	-1.0667	-0.001068	0.69366	-0.34515	-0.000763	0.001373
21.501	0.007629	1.2535	-0.02243	0.006256	-0.013275	-0.018768	0.037537	0.005188	0.29892	0.003052	0.079651	-0.000153	-0.058289	-0.09491	-0.014954	-0.012054	0.031128	-0.15793	0.4332	0.14694	0.003357	-0.09903	-0.42313	-0.19333	0.27176	-0.006866	-0.91599	0	-0.10208	-0.16556	0.001221	-0.00885
21.502	0.005951	1.2331	-0.019073	0.007477	-0.008698	0.000153	0.039978	0.002899	0.28366	0.050201	0.10696	-0.007935	-0.068817	-0.10635	0.07431	-0.014343	0.04776	-0.10162	0.3215	0.047302	-0.010071	-0.055237	-0.21103	0.001068	0.40222	-0.011902	-0.66864	-0.004425	-0.11505	-0.007019	0.006561	-0.003662
21.503	0.005035	1.2239	-0.021667	0.009766	-0.004883	-0.000458	0.042572	-0.001221	0.27695	-0.009918	0.06134	-0.001373	0.031281	-0.066528	0.17059	-0.006409	0.027924	0.033569	-0.093842	-0.059204	-0.003357	-0.034332	-0.10498	0.1712	0.32227	0.007324	-0.31082	-0.003052	0.35507	0.065308	-0.000763	-0.011139
21.504	0.00824	1.2292	-0.009003	0.007477	-0.017395	-0.013275	0.028076	0.000916	0.2652	-0.086823	-0.038452	0.000763	0.13397	-0.085297	0.25589	-0.010071	-0.018921	0.098267	-0.11704	-0.079346	-0.18341	-0.008698	-0.27252	0.01358	0.14008	0.000458	-0.28717	-0.007477	0.34454	0.16663	-0.001373	-0.009003
21.505	0.005188	1.1769	-0.022888	0.029907	-0.014038	-0.045929	0.033722	-0.012207	0.27054	-0.076904	-0.1503	0.007935	0.12283	-0.03418	0.383	-0.018921	-0.037994	0.10849	-0.043488	-0.051575	-0.10056	-0.02655	-0.21255	0.13977	-0.1445	-0.024719	-0.22492	-0.020294	0.089569	0.20691	-0.002289	-0.011902
21.506	0.014191	1.1153	-0.007172	0.035095	-0.00473	-0.038757	0.052032	-0.006256	0.25848	0.011139	-0.10788	0.012512	0.089417	-0.1532	0.32516	-0.009003	-0.005798	0.095825	0.50018	-0.056915	-0.004425	0.007172	0.075836	0.15152	-0.3656	-0.00946	-0.001526	-0.02533	0.33218	0.029144	-0.000916	-0.011749
21.507	0.007477	1.0692	-0.008698	0.024872	-0.007324	-0.035248	0.04364	0.018311	0.26566	-0.023651	-0.029602	0.001678	0.095215	-0.17273	0.19363	-0.009613	0.016632	0.049133	0.3125	-0.097046	-0.17151	0.03006	0.15427	0.055084	-0.47531	-0.015106	0.08194	-0.03952	0.09964	-0.22659	-0.001068	-0.009766
21.508	0.006256	1.0048	-0.049438	0.024719	-0.009918	-0.054779	0.059204	-0.001984	0.27466	0.008087	0.057983	0.014343	0.071564	-0.084991	0.13473	-0.007019	0.000763	0.076447	-0.001678	-0.035553	-0.15961	-0.034332	0.02594	0.045319	-0.30273	-0.02533	-0.052032	-0.054321	-0.52917	-0.336	0.003357	-0.013428
21.509	0.009613	0.92468	-0.057983	0.027008	-0.014038	-0.027161	0.056152	-0.002441	0.26657	0.021667	0.074615	0.010834	0.048676	0.000763	0.11932	-0.004578	-0.012817	0.086212	-0.49942	-0.031891	-0.33936	-0.002594	-0.015564	-0.025787	-0.11536	0.027008	-0.061798	0.023041	-0.40436	-0.32013	-0.001068	-0.010376
21.51	-0.002136	0.8815	-0.035248	0.022736	-0.015259	-0.041199	0.035706	-0.004578	0.2652	-0.011749	-0.010986	0.009155	0.07843	-0.005646	0.16876	-0.005341	0.002289	0.11643	-0.42694	-0.059052	-0.24231	-0.010376	0.014343	-0.036163	-0.00412	0.025177	-0.063934	-0.026398	-0.06897	-0.22278	-0.000305	-0.009918
21.511	-0.005035	0.81451	-0.026398	0.019379	-0.020294	-0.035706	0.02594	-0.009308	0.25894	0.003815	0.006866	0.012207	0.071106	-0.010376	0.11612	0.007172	0.04837	0.16769	-0.5275	-0.03479	-0.071259	-0.10956	0.027161	-0.033722	0.020905	-0.03006	0.030518	0.002899	-0.15381	0.0737	-0.001678	-0.010071
21.512	0.001831	0.75577	0.003967	-0.001831	-0.031586	-0.043182	0.037994	-0.001526	0.25223	0.033112	0.048218	0.008392	0.040131	-0.029907	0.091705	0.010223	0.052185	0.1413	0.24658	-0.07019	0.11536	-0.20859	0.033112	0.002289	0.016632	-0.12329	0.036011	-0.26291	0.13367	0.19775	0.004272	-0.011444
